<svg xmlns="http://www.w3.org/2000/svg" width="823.782" height="724.017" viewBox="0 0 823.782 724.017"><g transform="translate(-6003.822 -0.379)"><path d="M225.264,164.747C150.623,171.54,82.143,210.084,38.938,271.219c-66.348,93.755-81.987,250.067,236.719,454.086,502.741,321.944,473.911,7.346,467.514-37.439-.632-4.344-1.106-8.767-1.58-13.112L714.578,379.271C701.7,237.334,575.959,132.758,433.943,145.711Z" transform="translate(6003.829 -144.248)" fill="#7fbd2e" opacity="0.1"/><g transform="translate(6149.628 -32.701)"><path d="M968.049,770.421a55.85,55.85,0,0,0,5.3-91.779,208.864,208.864,0,0,1,23.017-27.26c4.026-4.022,8.116-7.82,12.249-11.453,1.654,1.395,3.274,2.834,4.852,4.338l13.749-8.4a14.922,14.922,0,0,1,20.517,4.949l13.623,22.29a14.925,14.925,0,0,1-4.951,20.516l-13.748,8.4a107.61,107.61,0,0,1,4.4,31.771l15.539,4.335a14.927,14.927,0,0,1,10.365,18.39l-7.02,25.162a14.931,14.931,0,0,1-18.389,10.365l-15.523-4.334a107.342,107.342,0,0,1-14.773,19.554l8.406,13.746a14.929,14.929,0,0,1-4.952,20.52l-22.288,13.625A14.929,14.929,0,0,1,977.9,840.2l-8.4-13.747a107.3,107.3,0,0,1-24.454,4.216,171.154,171.154,0,0,1-6.139-52.094A55.64,55.64,0,0,0,968.049,770.421Z" transform="translate(-395.537 -207.905)" fill="#7fbd2e"/><g transform="translate(14.237 252.541)"><path d="M544.981,705.838H64.536A23.606,23.606,0,0,1,40.93,682.232v-327.7a23.605,23.605,0,0,1,23.606-23.606H544.981a23.605,23.605,0,0,1,23.605,23.606v327.7A23.605,23.605,0,0,1,544.981,705.838Z" transform="translate(-25.657 -330.927)" fill="#e4e9f6"/><path d="M548.124,704.6H71.772a18.711,18.711,0,0,1-18.708-18.71V358.257a18.709,18.709,0,0,1,18.708-18.709H548.124a18.709,18.709,0,0,1,18.708,18.709V685.885A18.71,18.71,0,0,1,548.124,704.6Z" transform="translate(-30.848 -334.615)" fill="#b188be"/><path d="M549.7,685.226H103.421A11.528,11.528,0,0,1,91.891,673.7V381.1a11.529,11.529,0,0,1,11.53-11.528H549.7a11.528,11.528,0,0,1,11.53,11.528V673.7A11.528,11.528,0,0,1,549.7,685.226Z" transform="translate(-47.458 -347.459)" fill="#496bb3"/><path d="M16.7,952.178a19.569,19.569,0,0,0-2.462,9.373,19.785,19.785,0,0,0,19.787,19.786h518.63a19.785,19.785,0,0,0,19.786-19.786,19.564,19.564,0,0,0-2.463-9.373Z" transform="translate(-14.237 -596.706)" fill="#e4e9f6"/><path d="M18.54,984.942a19.7,19.7,0,0,0,17.325,10.411h518.63a19.694,19.694,0,0,0,17.323-10.411Z" transform="translate(-16.078 -610.722)" fill="#cad6ee"/></g><path d="M658.591,330.927H306.49v235.3a9.421,9.421,0,0,0,9.423,9.422H682.2V354.533A23.605,23.605,0,0,0,658.591,330.927Z" transform="translate(-125.029 -78.386)" fill="#434261" opacity="0.2"/><path d="M731.887,544.627H338.553a9.421,9.421,0,0,1-9.425-9.419v-242.6a9.422,9.422,0,0,1,9.425-9.42H731.884a9.421,9.421,0,0,1,9.423,9.42v242.6A9.422,9.422,0,0,1,731.887,544.627Z" transform="translate(-134.715 -57.965)" fill="#e4e9f6" opacity="0.21"/><path d="M760.7,513.757H367.369a9.424,9.424,0,0,1-9.423-9.426V261.737a9.422,9.422,0,0,1,9.423-9.421H760.7a9.419,9.419,0,0,1,9.42,9.421V504.332A9.422,9.422,0,0,1,760.7,513.757Z" transform="translate(-147.043 -44.756)" fill="#f9fcfd"/><path d="M189.28,522.3H147.473a5.887,5.887,0,0,1-5.889-5.889V472.253a5.887,5.887,0,0,1,5.889-5.888H189.28a5.886,5.886,0,0,1,5.886,5.888v44.162A5.886,5.886,0,0,1,189.28,522.3Z" transform="translate(-54.481 -136.328)" fill="#434261" opacity="0.2"/><path d="M183.876,664.316H142.07a5.889,5.889,0,0,1-5.89-5.889V614.263a5.886,5.886,0,0,1,5.89-5.886h41.807a5.886,5.886,0,0,1,5.887,5.886v44.164A5.889,5.889,0,0,1,183.876,664.316Z" transform="translate(-52.169 -197.083)" fill="#fff"/><path d="M183.876,803.241H142.07a5.891,5.891,0,0,1-5.89-5.891V753.188a5.887,5.887,0,0,1,5.89-5.886h41.807a5.887,5.887,0,0,1,5.887,5.886V797.35A5.891,5.891,0,0,1,183.876,803.241Z" transform="translate(-52.169 -256.516)" fill="#fff"/><g transform="translate(97.136 498.488)"><path d="M992.847,894.16l12.555,3.747s-.068,11.318-3.207,18.109a18.26,18.26,0,0,1-9.349,9.055,18.211,18.211,0,0,1-9.717-9.055c-3.106-6.791-2.706-18.109-2.706-18.109Z" transform="translate(-980.408 -894.16)" fill="none" stroke="#7fbd2e" stroke-width="1"/><g transform="translate(6.624 6.624)"><path d="M0,0H11.685V8.4H0Z" transform="translate(0 7.181)" fill="#7fbd2e"/><g transform="translate(1.339)" fill="none"><path d="M4.5,0a4.5,4.5,0,0,1,4.5,4.5V9.372A4.5,4.5,0,0,1,0,9.372V4.5A4.5,4.5,0,0,1,4.5,0Z" stroke="none"/><path d="M 4.503478527069092 1.000000953674316 C 2.571648597717285 1.000000953674316 0.9999980926513672 2.571650505065918 0.9999980926513672 4.503480911254883 L 0.9999980926513672 9.372100830078125 C 0.9999980926513672 11.30393028259277 2.571648597717285 12.87558078765869 4.503478527069092 12.87558078765869 C 6.435308456420898 12.87558078765869 8.006958961486816 11.30393028259277 8.006958961486816 9.372100830078125 L 8.006958961486816 4.503480911254883 C 8.006958961486816 2.571650505065918 6.435308456420898 1.000000953674316 4.503478527069092 1.000000953674316 M 4.503478527069092 9.5367431640625e-07 C 6.990678787231445 9.5367431640625e-07 9.006958961486816 2.016270637512207 9.006958961486816 4.503480911254883 L 9.006958961486816 9.372100830078125 C 9.006958961486816 11.8593111038208 6.990678787231445 13.87558078765869 4.503478527069092 13.87558078765869 C 2.016278743743896 13.87558078765869 -1.9073486328125e-06 11.8593111038208 -1.9073486328125e-06 9.372100830078125 L -1.9073486328125e-06 4.503480911254883 C -1.9073486328125e-06 2.016270637512207 2.016278743743896 9.5367431640625e-07 4.503478527069092 9.5367431640625e-07 Z" stroke="none" fill="#7fbd2e"/></g></g></g><g transform="translate(92.453 420.743)"><path d="M40.143-10.019a7.735,7.735,0,0,1-2.352,5.677A7.735,7.735,0,0,1,32.115-1.99H9.367A9.021,9.021,0,0,1,2.749-4.739,9.021,9.021,0,0,1,0-11.357a9.09,9.09,0,0,1,1.484-5.049,9.22,9.22,0,0,1,3.91-3.418q-.042-.585-.042-.9a10.314,10.314,0,0,1,3.136-7.569,10.314,10.314,0,0,1,7.569-3.136,10.363,10.363,0,0,1,5.99,1.84,10.692,10.692,0,0,1,3.92,4.809,5.062,5.062,0,0,1,3.471-1.3,5.157,5.157,0,0,1,3.784,1.568,5.157,5.157,0,0,1,1.568,3.784,5.183,5.183,0,0,1-.857,2.885,7.851,7.851,0,0,1,4.453,2.812A7.769,7.769,0,0,1,40.143-10.019Z" transform="translate(0 31.429)" fill="none" stroke="#7fbd2e" stroke-width="1"/><path d="M3.08-27.414a20.537,20.537,0,0,0,4.2.408,20.537,20.537,0,0,0,4.2-.408,8.27,8.27,0,0,0,3.08-1.2v1.611q0,.654-.976,1.213a8.805,8.805,0,0,1-2.654.886,19.09,19.09,0,0,1-3.649.327,19.09,19.09,0,0,1-3.649-.327,8.805,8.805,0,0,1-2.654-.886Q0-26.352,0-27.006v-1.611A8.27,8.27,0,0,0,3.08-27.414Zm0,7.279a20.537,20.537,0,0,0,4.2.408,20.537,20.537,0,0,0,4.2-.408,8.27,8.27,0,0,0,3.08-1.2v1.611q0,.654-.976,1.213a8.805,8.805,0,0,1-2.654.886,19.091,19.091,0,0,1-3.649.327,19.091,19.091,0,0,1-3.649-.327,8.805,8.805,0,0,1-2.654-.886Q0-19.073,0-19.727v-1.611A8.27,8.27,0,0,0,3.08-20.135Zm0-3.64a20.537,20.537,0,0,0,4.2.408,20.537,20.537,0,0,0,4.2-.408,8.27,8.27,0,0,0,3.08-1.2v1.611q0,.654-.976,1.213a8.805,8.805,0,0,1-2.654.886,19.091,19.091,0,0,1-3.649.327,19.091,19.091,0,0,1-3.649-.327,8.805,8.805,0,0,1-2.654-.886Q0-22.713,0-23.367v-1.611A8.27,8.27,0,0,0,3.08-23.774Zm.55-10.184a19.091,19.091,0,0,1,3.649-.327,19.091,19.091,0,0,1,3.649.327,8.805,8.805,0,0,1,2.654.886q.976.559.976,1.213v1.213q0,.654-.976,1.213a8.805,8.805,0,0,1-2.654.886,19.09,19.09,0,0,1-3.649.327,19.091,19.091,0,0,1-3.649-.327,8.805,8.805,0,0,1-2.654-.886Q0-29.992,0-30.646v-1.213q0-.654.976-1.213A8.805,8.805,0,0,1,3.63-33.959Z" transform="translate(12.414 44.008)" fill="#7fbd2e"/></g><text transform="translate(111.372 459.701)" fill="#7fbd2e" font-size="7" font-family="Poppins-Regular, Poppins"><tspan x="-13.209" y="0">Hosting</tspan></text><text transform="translate(110.372 539.701)" fill="#7fbd2e" font-size="7" font-family="Poppins-Regular, Poppins"><tspan x="-5.495" y="0">SSL</tspan></text><g transform="translate(84.011 328.271)"><path d="M183.876,519.217H142.07a5.888,5.888,0,0,1-5.89-5.891v-44.16a5.887,5.887,0,0,1,5.89-5.887h41.807a5.887,5.887,0,0,1,5.887,5.887v44.16A5.888,5.888,0,0,1,183.876,519.217Z" transform="translate(-136.18 -463.279)" fill="#fff"/></g><g transform="translate(19.788 357.712)"><path d="M129.532,535.489l4.416-3.095,1.987-7.286-2.206-.441-1.324,2.649,1.324-12.585-2.21.441-2.207,12.144-2.652,5.744,2.429,1.543" transform="translate(-67.884 -514.732)" fill="#f6d3a9"/><path d="M177.341,565.1l.589-5.3,6.478-6.475,1.472,2.059-2.356,2.649,12.368-2.942v2.65l-11.484,4.414-2.355,4.123Z" transform="translate(-89.566 -531.242)" fill="#f6d3a9"/><g transform="translate(0 16.298)"><path d="M36.452,802.873,60.537,920.69l18.224-1.951L66.4,914.182l4.555-1.3L64.443,802.873Z" transform="translate(-29.292 -654.3)" fill="#5653a4"/><path d="M79.726,794.59s30.593,28.64,26.034,63.137c-5.207,27.337-16.271,37.753-16.271,37.753l-3.255-.65,5.044,13.344L76.631,892.552s18.065-24.9,6.834-50.772S47.83,806.628,47.83,806.628s20.991-19.037,22.455-18.55S79.726,794.59,79.726,794.59Z" transform="translate(-34.159 -647.966)" fill="#5653a4"/><path d="M82.521,543.215S32.238,604.242,26.38,616.446c0,0-2.442,4.394-2.442,17.087s4.393,59.56,4.393,59.56l51.262,2.928s-16.6-57.12-17.086-58.585-8.788-10.252-16.6-12.205l42.959-77.621Z" transform="translate(-23.938 -543.215)" fill="#f68a44"/><g transform="translate(13.19 46.286)"><path d="M62.578,673.061s2.136,6.335,3.315,10.168c0,0-10.464-.224-14.147-5.085l3.9-9.355Z" transform="translate(-49.025 -643.224)" fill="#f6d3a9"/><path d="M68.5,634.14s3.095,18.021,0,22.118-13.7-2.869-18.125-9.421-5.3-21.3,2.211-22.525A13.889,13.889,0,0,1,68.5,634.14Z" transform="translate(-46.99 -624.109)" fill="#f6d3a9"/></g><path d="M74.741,644.281s40.314-25.359,43.566-30.565,12.354-43.89,12.354-43.89l7.8,1.95s-4.552,43.241-5.853,47.794-40.965,46.818-50.069,46.818S70.188,654.68,74.741,644.281Z" transform="translate(-44.798 -554.599)" fill="#f68a44"/><path d="M43.6,621.469a15.274,15.274,0,0,1,14.72-5.594c9.421,1.768,11.776-.294,11.776-.294s-2.059,10.3-8.538,12.658-8.245,1.768-8.245,1.768,3.534,3.533,4.418,6.181-2.945-3.237-4.418-1.176,0,6.478,2.945,6.181,1.179,2.06,0,4.416-2.945,5.3-4.71,4.416A20.8,20.8,0,0,1,41.241,638.25C38.886,630.887,38.3,623.823,43.6,621.469Z" transform="translate(-30.6 -574.174)" fill="#5653a4"/></g></g><path d="M521.432,508.613H406.613a4.417,4.417,0,0,1-4.419-4.416V304.585a4.416,4.416,0,0,1,4.419-4.416H521.432a4.415,4.415,0,0,1,4.416,4.416V504.2A4.416,4.416,0,0,1,521.432,508.613Z" transform="translate(-165.973 -65.228)" fill="#e4e9f6"/><path d="M515.79,347.163H442.774a3.532,3.532,0,0,1-3.53-3.533v-10.6a3.53,3.53,0,0,1,3.53-3.532H515.79a3.533,3.533,0,0,1,3.534,3.532v10.6A3.535,3.535,0,0,1,515.79,347.163Z" transform="translate(-181.823 -77.776)" fill="#b188be"/><path d="M474.748,521.841H453.215a6.77,6.77,0,0,1-6.771-6.768h0a6.77,6.77,0,0,1,6.771-6.77h21.533a6.769,6.769,0,0,1,6.768,6.77h0A6.769,6.769,0,0,1,474.748,521.841Z" transform="translate(-184.903 -154.27)" fill="#77838f"/><path d="M552.5,521.841H531.052c-4.335,0-7.85-3.03-7.85-6.768h0c0-3.739,3.516-6.77,7.85-6.77H552.5c4.334,0,7.85,3.03,7.85,6.77h0C560.353,518.811,556.837,521.841,552.5,521.841Z" transform="translate(-218.732 -154.27)" fill="#7fbd2e"/><rect width="85.966" height="13.543" transform="translate(255.655 287.052)" fill="#f9fcfd"/><rect width="85.966" height="13.543" transform="translate(255.655 310.016)" fill="#f9fcfd"/><rect width="49.46" height="3.091" transform="translate(274.202 332.098)" fill="#cfd3eb"/><path d="M935.189,571.3H780.624A17.222,17.222,0,0,1,763.4,554.078h0a17.221,17.221,0,0,1,17.222-17.221H935.191a17.224,17.224,0,0,1,17.223,17.221h0A17.227,17.227,0,0,1,935.189,571.3Z" transform="translate(-320.502 -166.486)" fill="#8371b3"/><g transform="translate(370.473 230.525)"><path d="M747.23,320.714H650.955a14.131,14.131,0,0,1-14.132-14.13h0a14.133,14.133,0,0,1,14.132-14.133h96.276a14.13,14.13,0,0,1,14.128,14.133h0A14.129,14.129,0,0,1,747.23,320.714Z" transform="translate(-636.823 -292.451)" fill="#e4e9f6"/><circle cx="4.416" cy="4.416" r="4.416" transform="translate(28.264 9.717)" fill="#fec240"/><path d="M748.049,313.848a4.417,4.417,0,1,1-4.416-4.417A4.415,4.415,0,0,1,748.049,313.848Z" transform="translate(-680.627 -299.715)" fill="#90c240"/><circle cx="4.415" cy="4.415" r="4.415" transform="translate(86.559 9.717)" fill="#ea5024"/></g><path d="M8-29.275a15.708,15.708,0,0,1,8.06-2.154,15.708,15.708,0,0,1,8.06,2.154,15.985,15.985,0,0,1,5.844,5.844,15.708,15.708,0,0,1,2.154,8.06,15.708,15.708,0,0,1-2.154,8.06,15.985,15.985,0,0,1-5.844,5.844A15.708,15.708,0,0,1,16.057.686,15.708,15.708,0,0,1,8-1.467,15.985,15.985,0,0,1,2.154-7.311,15.708,15.708,0,0,1,0-15.371a15.708,15.708,0,0,1,2.154-8.06A15.985,15.985,0,0,1,8-29.275Zm13.789,8.74a1.183,1.183,0,0,0-.2.2.54.54,0,0,1-.282.2q.042,0,.094-.1t.1-.23a.642.642,0,0,1,.073-.146,1.513,1.513,0,0,1,.46-.314,5.268,5.268,0,0,1,1.087-.251,1.019,1.019,0,0,1,1.066.23q-.042-.042.2-.272a1.437,1.437,0,0,1,.3-.251,1.128,1.128,0,0,1,.314-.094.467.467,0,0,0,.314-.157l.042-.46A.371.371,0,0,1,25-22.334a.884.884,0,0,1-.136-.439q0,.042-.125.167,0-.146-.094-.167a.5.5,0,0,0-.24.021.33.33,0,0,1-.188.021.821.821,0,0,1-.314-.157.689.689,0,0,1-.167-.345q-.063-.251-.084-.314a.625.625,0,0,0-.2-.23.742.742,0,0,1-.2-.209q-.021-.042-.052-.115t-.063-.136a.441.441,0,0,0-.084-.115.16.16,0,0,0-.115-.052q-.063,0-.146.1t-.157.209q-.073.1-.094.1a.171.171,0,0,0-.125-.031.667.667,0,0,0-.094.021.353.353,0,0,0-.094.063.585.585,0,0,1-.1.073.477.477,0,0,1-.178.063,1.367,1.367,0,0,0-.178.042q.314-.1-.021-.23a.66.66,0,0,0-.335-.063.218.218,0,0,0,.157-.251.5.5,0,0,0-.178-.293h.1q-.021-.084-.178-.178a2.563,2.563,0,0,0-.366-.178,1.8,1.8,0,0,1-.272-.125,2.317,2.317,0,0,0-.711-.2,1.3,1.3,0,0,0-.69-.01.31.31,0,0,0-.094.22,1.416,1.416,0,0,0,.084.293,1.01,1.01,0,0,1,.073.261.331.331,0,0,1-.115.272.409.409,0,0,0-.136.251q0,.146.293.324a.369.369,0,0,1,.209.45.758.758,0,0,1-.335.335,1.4,1.4,0,0,0-.335.251.437.437,0,0,0-.031.387.757.757,0,0,0,.22.345.087.087,0,0,1,.031.084.2.2,0,0,1-.073.094.935.935,0,0,1-.115.084q-.052.031-.136.073l-.063.042a.342.342,0,0,1-.429-.125,1.351,1.351,0,0,1-.282-.544q-.146-.523-.335-.627-.481-.167-.606.021-.1-.272-.857-.544a2.463,2.463,0,0,0-1.213-.084q.125-.021,0-.314-.146-.314-.4-.251a1.05,1.05,0,0,0,.084-.366q.021-.24.021-.282a1.066,1.066,0,0,1,.251-.481q.021-.021.146-.178a2.4,2.4,0,0,0,.2-.282q.073-.125.01-.125a1.234,1.234,0,0,0,1.045-.23,1.608,1.608,0,0,0,.24-.355,2.605,2.605,0,0,1,.22-.355.507.507,0,0,1,.293-.115.936.936,0,0,1,.3.115.736.736,0,0,0,.3.1q.293.021.324-.23a.454.454,0,0,0-.157-.418q.251.021.063-.355a.454.454,0,0,0-.167-.188.671.671,0,0,0-.565.1q-.167.084.042.167-.021-.021-.2.22a1.768,1.768,0,0,1-.345.366q-.167.125-.335-.1a1.687,1.687,0,0,1-.115-.282q-.094-.261-.2-.282-.167,0-.335.314.063-.167-.23-.314a1.5,1.5,0,0,0-.5-.167q.4-.251-.167-.565a1.038,1.038,0,0,0-.429-.1.568.568,0,0,0-.408.084.563.563,0,0,0-.115.24.178.178,0,0,0,.1.167,1.339,1.339,0,0,0,.22.115q.1.042.24.084a1.435,1.435,0,0,1,.178.063q.293.209.167.293-.042.021-.178.073l-.24.094a.238.238,0,0,0-.125.084.343.343,0,0,0,0,.293q.063.209-.042.293a.926.926,0,0,1-.188-.366,1.333,1.333,0,0,0-.146-.345q.146.188-.523.125l-.209-.021a2.566,2.566,0,0,0-.335.042,1.553,1.553,0,0,1-.429.021.389.389,0,0,1-.282-.167.539.539,0,0,1,0-.418q.021-.084.084-.042-.084-.063-.23-.2a2.041,2.041,0,0,0-.209-.178,11.857,11.857,0,0,0-1.965.857.515.515,0,0,0,.251-.021,2.429,2.429,0,0,0,.272-.136q.167-.094.209-.115.711-.293.878-.146l.1-.1a5.571,5.571,0,0,1,.418.523,1.187,1.187,0,0,0-.627-.021q-.418.125-.46.251a.512.512,0,0,1,.1.376q-.084-.063-.24-.209a1.658,1.658,0,0,0-.3-.23.835.835,0,0,0-.314-.1,3.316,3.316,0,0,0-.46.021,13.194,13.194,0,0,0-4.913,4.642.554.554,0,0,0,.251.167q.084.021.1.188a.8.8,0,0,0,.052.23q.031.063.24-.063a.293.293,0,0,1,.063.4,7.672,7.672,0,0,1,.92.565,2.854,2.854,0,0,1,.439.439q.063.23-.209.376a1.069,1.069,0,0,0-.188-.188q-.167-.146-.188-.084a.558.558,0,0,0,.01.387q.073.282.22.261-.146,0-.2.335a4.829,4.829,0,0,0-.052.742,3.118,3.118,0,0,1-.021.491l.042.021a1.3,1.3,0,0,0,.115.721q.178.47.45.408-.272.063.418.9a.82.82,0,0,0,.167.188q.063.042.251.157t.314.209a.892.892,0,0,1,.209.22,1.84,1.84,0,0,1,.209.47,1.023,1.023,0,0,0,.293.491q-.042.125.2.418a.718.718,0,0,1,.22.481A.1.1,0,0,0,9-13.51a.1.1,0,0,1-.052.021.713.713,0,0,0,.324.293.786.786,0,0,1,.324.272,1.337,1.337,0,0,1,.042.209.769.769,0,0,0,.063.23q.042.084.167.042a2.461,2.461,0,0,0-.5-1.3q-.314-.523-.355-.606a1.2,1.2,0,0,1-.115-.324,1.594,1.594,0,0,0-.094-.3.4.4,0,0,1,.125.031q.084.031.178.073a1.066,1.066,0,0,1,.157.084q.063.042.042.063a.443.443,0,0,0,.042.366,1.68,1.68,0,0,0,.251.387q.146.167.355.4t.251.272a2.149,2.149,0,0,1,.293.408q.167.282,0,.282a.647.647,0,0,1,.418.22,2.5,2.5,0,0,1,.355.408,1.564,1.564,0,0,1,.167.544,4.028,4.028,0,0,0,.1.5.661.661,0,0,0,.178.282,1.037,1.037,0,0,0,.261.2l.335.167q.209.1.272.146a3.049,3.049,0,0,1,.387.22,2.7,2.7,0,0,0,.45.24.964.964,0,0,0,.335.084,1.1,1.1,0,0,0,.3-.052q.178-.052.282-.073a.68.68,0,0,1,.606.314,2.062,2.062,0,0,0,.439.439,1.432,1.432,0,0,0,1.15.23q-.042.021.01.157a2.075,2.075,0,0,0,.167.324q.115.188.188.3t.115.178a1.985,1.985,0,0,0,.376.314,1.985,1.985,0,0,1,.376.314.307.307,0,0,0,.146-.188q-.063.167.146.418t.376.209q.293-.063.293-.669a.7.7,0,0,1-1.024-.376.408.408,0,0,0-.052-.115,1.332,1.332,0,0,1-.084-.178,1.323,1.323,0,0,1-.052-.178.3.3,0,0,1,0-.157.1.1,0,0,1,.1-.063q.188,0,.209-.073a.522.522,0,0,0-.042-.261q-.063-.188-.084-.272a.9.9,0,0,0-.23-.418q-.209-.251-.251-.314a.318.318,0,0,1-.335.167.412.412,0,0,1-.335-.188.577.577,0,0,1-.031.115.5.5,0,0,0-.031.136,1.192,1.192,0,0,1-.314-.021,2.588,2.588,0,0,0,.052-.366,3.563,3.563,0,0,1,.073-.47,1.162,1.162,0,0,1,.115-.251q.094-.167.157-.3a1.03,1.03,0,0,0,.084-.261.184.184,0,0,0-.094-.2.606.606,0,0,0-.366-.052.577.577,0,0,0-.544.418q-.021.063-.063.22a.708.708,0,0,1-.1.24.52.52,0,0,1-.188.146,1.222,1.222,0,0,1-.5.042,1.232,1.232,0,0,1-.5-.1,1.325,1.325,0,0,1-.47-.606,1.921,1.921,0,0,1-.2-.774,3.885,3.885,0,0,1,.052-.554q.052-.345.063-.523a1.373,1.373,0,0,0-.115-.512,1.061,1.061,0,0,0,.188-.2,1.3,1.3,0,0,1,.209-.22.373.373,0,0,1,.094-.031.214.214,0,0,1,.094,0,.087.087,0,0,0,.084-.031.265.265,0,0,0,.063-.125.623.623,0,0,0-.084-.063q-.063-.063-.084-.063a1.2,1.2,0,0,0,.6-.031q.45-.094.575.031.314.23.46-.042a1.664,1.664,0,0,0-.052-.2.441.441,0,0,1-.01-.282q.1.565.606.188a.677.677,0,0,0,.324.1,1.113,1.113,0,0,1,.366.1,1.463,1.463,0,0,1,.146.115,1.409,1.409,0,0,0,.115.094q.031.021.1-.01a.63.63,0,0,0,.178-.136,1.392,1.392,0,0,1,.251.5q.23.836.4.92a.383.383,0,0,0,.23.042q.084-.021.094-.2a2.028,2.028,0,0,0,0-.293q-.01-.115-.031-.261l-.021-.167q0-.188,0-.376l-.021-.167a.471.471,0,0,1-.387-.251.449.449,0,0,1,.031-.387,1.419,1.419,0,0,1,.314-.387.683.683,0,0,1,.167-.073q.146-.052.324-.136a.94.94,0,0,0,.261-.167q.439-.4.314-.732.146,0,.23-.188a.306.306,0,0,1-.1-.063,1.529,1.529,0,0,0-.157-.1.284.284,0,0,0-.094-.042q.188-.1.042-.335a.389.389,0,0,0,.157-.23.3.3,0,0,1,.157-.209.268.268,0,0,0,.439.042.218.218,0,0,0,.021-.335.7.7,0,0,1,.429-.22q.324-.073.387-.2.146.042.167-.042a1.115,1.115,0,0,0,.021-.251.416.416,0,0,1,.063-.251.712.712,0,0,1,.314-.188q.23-.084.272-.1l.355-.23q.063-.084,0-.084a.757.757,0,0,0,.648-.23q.209-.23-.125-.418a.136.136,0,0,0-.063-.2,1.094,1.094,0,0,0-.314-.115.758.758,0,0,1,.24-.01q.178.01.22-.031.314-.209-.146-.335A1.132,1.132,0,0,0,21.786-20.535ZM18.378-2.2a12.937,12.937,0,0,0,7.339-3.952.5.5,0,0,0-.261-.094.751.751,0,0,1-.261-.073,3.289,3.289,0,0,0-.5-.167.41.41,0,0,0-.052-.272.558.558,0,0,0-.167-.188q-.094-.063-.261-.167t-.23-.146q-.042-.042-.146-.125L23.689-7.5a1.484,1.484,0,0,0-.157-.094.241.241,0,0,0-.178-.042.734.734,0,0,1-.209.021l-.063.021a.578.578,0,0,0-.115.052q-.052.031-.115.063a.216.216,0,0,0-.084.063q-.021.031,0,.052a2.589,2.589,0,0,0-.753-.46.591.591,0,0,1-.23-.115,1.986,1.986,0,0,0-.22-.146.305.305,0,0,0-.209-.031.477.477,0,0,0-.24.146.5.5,0,0,0-.125.314,1.585,1.585,0,0,1-.042.272q-.146-.1,0-.366t.042-.387a.18.18,0,0,0-.22-.094.7.7,0,0,0-.251.094q-.094.063-.24.178a1.628,1.628,0,0,1-.188.136,2,2,0,0,0-.178.115.7.7,0,0,0-.178.157,1.038,1.038,0,0,0-.125.251,1.265,1.265,0,0,1-.1.23q-.042-.084-.24-.136t-.2-.115a7.281,7.281,0,0,1,.084.732,5.871,5.871,0,0,0,.1.795.965.965,0,0,1-.251,1,1.723,1.723,0,0,0-.606.836q-.084.46.251.544a.968.968,0,0,1-.167.429.774.774,0,0,0-.146.45A1.8,1.8,0,0,0,18.378-2.2Z" transform="translate(94.794 366.064)" fill="#7fbd2e"/><text transform="translate(110.372 376.701)" fill="#7fbd2e" font-size="7" font-family="Poppins-Regular, Poppins"><tspan x="-13.8" y="0">Domain</tspan></text><g transform="translate(407.079 287.723)"><path d="M788.581,454.651H707.763a6.965,6.965,0,0,1-6.965-6.968v-48.3a6.964,6.964,0,0,1,6.965-6.966h80.818a6.967,6.967,0,0,1,6.967,6.966v48.3A6.968,6.968,0,0,1,788.581,454.651Z" transform="translate(-700.798 -392.414)" fill="#e4e9f6"/><path d="M754.446,427.064h-.186a2.489,2.489,0,0,1-1.207-.312L716.53,406.46a2.49,2.49,0,1,1,2.42-4.352l35.4,19.669,35.4-19.669a2.49,2.49,0,1,1,2.421,4.352l-36.524,20.292A2.491,2.491,0,0,1,754.446,427.064Z" transform="translate(-706.98 -396.427)" fill="#f04c45"/></g><path d="M1015.154,376.448h-105.1a6.182,6.182,0,0,1-6.182-6.182V230.716a6.183,6.183,0,0,1,6.182-6.184h105.106a6.184,6.184,0,0,1,6.184,6.184v139.55A6.183,6.183,0,0,1,1015.154,376.448Z" transform="translate(-380.594 -32.869)" fill="#5653a4"/><g transform="translate(540.937 209.001)"><path d="M943.322,257.859h-7.831c-.415,0-.752-.678-.752-1.514h0c0-.835.337-1.512.752-1.512h7.831c.416,0,.751.677.751,1.512h0C944.073,257.182,943.738,257.859,943.322,257.859Z" transform="translate(-934.739 -254.833)" fill="#33c6f4"/><path d="M1000.38,257.859H955.608c-.417,0-.755-.678-.755-1.514h0c0-.835.339-1.512.755-1.512h44.772c.417,0,.751.677.751,1.512h0C1001.135,257.182,1000.8,257.859,1000.38,257.859Z" transform="translate(-943.344 -254.833)" fill="#33c6f4"/><path d="M969.892,268.791H955.611c-.417,0-.755-.679-.755-1.515h0c0-.835.339-1.514.755-1.514h14.281c.417,0,.753.679.753,1.514h0C970.645,268.111,970.308,268.791,969.892,268.791Z" transform="translate(-943.345 -259.509)" fill="#ef58a0"/><path d="M1006.238,268.791H985.657c-.416,0-.754-.679-.754-1.515h0c0-.835.339-1.514.754-1.514h20.581c.417,0,.755.679.755,1.514h0C1006.994,268.111,1006.65,268.791,1006.238,268.791Z" transform="translate(-956.2 -259.509)" fill="#e4e9f6"/><path d="M1000.38,322.017H955.608c-.417,0-.755-.678-.755-1.513h0c0-.837.339-1.514.755-1.514h44.772c.417,0,.751.677.751,1.514h0C1001.135,321.34,1000.8,322.017,1000.38,322.017Z" transform="translate(-943.344 -282.28)" fill="#e4e9f6"/><path d="M943.322,332.951h-7.831c-.415,0-.752-.677-.752-1.515h0c0-.835.337-1.512.752-1.512h7.831c.416,0,.751.677.751,1.512h0C944.073,332.273,943.738,332.951,943.322,332.951Z" transform="translate(-934.739 -286.958)" fill="#33c6f4"/><path d="M969.892,332.951H955.611c-.417,0-.755-.677-.755-1.515h0c0-.835.339-1.512.755-1.512h14.281c.417,0,.753.677.753,1.512h0C970.645,332.273,970.308,332.951,969.892,332.951Z" transform="translate(-943.345 -286.958)" fill="#e4e9f6"/><path d="M1006.238,332.951H985.657c-.416,0-.754-.677-.754-1.515h0c0-.835.339-1.512.754-1.512h20.581c.417,0,.755.677.755,1.512h0C1006.994,332.273,1006.65,332.951,1006.238,332.951Z" transform="translate(-956.2 -286.958)" fill="#ef58a0"/><path d="M1011.481,279.722H955.608c-.417,0-.755-.678-.755-1.513h0c0-.837.339-1.514.755-1.514h55.872c.419,0,.755.677.755,1.514h0C1012.236,279.044,1011.9,279.722,1011.481,279.722Z" transform="translate(-943.344 -264.186)" fill="#ef58a0"/><path d="M1023.037,290.654h-13.008a.8.8,0,0,1-.8-.8v-1.433a.8.8,0,0,1,.8-.8h13.008a.8.8,0,0,1,.8.8v1.433A.8.8,0,0,1,1023.037,290.654Z" transform="translate(-966.607 -268.863)" fill="#33c6f4"/><path d="M974.172,290.654H955.611c-.417,0-.755-.677-.755-1.514h0c0-.835.339-1.512.755-1.512h18.561c.415,0,.751.677.751,1.512h0C974.924,289.977,974.588,290.654,974.172,290.654Z" transform="translate(-943.345 -268.863)" fill="#e4e9f6"/><path d="M999.814,290.654h-7.361c-.416,0-.752-.677-.752-1.514h0c0-.835.336-1.512.752-1.512h7.361c.417,0,.754.677.754,1.512h0C1000.564,289.977,1000.226,290.654,999.814,290.654Z" transform="translate(-959.108 -268.863)" fill="#33c6f4"/><path d="M943.322,301.221h-7.831c-.415,0-.752-.677-.752-1.512h0c0-.837.337-1.514.752-1.514h7.831c.416,0,.751.677.751,1.514h0C944.073,300.545,943.738,301.221,943.322,301.221Z" transform="translate(-934.739 -273.384)" fill="#e4e9f6"/><path d="M1011.481,301.221H955.608c-.417,0-.755-.677-.755-1.512h0c0-.837.339-1.514.755-1.514h55.872c.419,0,.755.677.755,1.514h0C1012.236,300.545,1011.9,301.221,1011.481,301.221Z" transform="translate(-943.344 -273.384)" fill="#e4e9f6"/><path d="M943.322,343.075h-7.831c-.415,0-.752-.677-.752-1.514h0c0-.836.337-1.513.752-1.513h7.831c.416,0,.751.677.751,1.513h0C944.073,342.4,943.738,343.075,943.322,343.075Z" transform="translate(-934.739 -291.289)" fill="#e4e9f6"/><path d="M1028.495,343.075h-18.328a.937.937,0,0,1-.938-.938v-1.152a.936.936,0,0,1,.938-.937h18.328a.937.937,0,0,1,.939.937v1.152A.937.937,0,0,1,1028.495,343.075Z" transform="translate(-966.606 -291.289)" fill="#e4e9f6"/><path d="M974.172,343.075H955.611c-.417,0-.755-.677-.755-1.514h0c0-.836.339-1.513.755-1.513h18.561c.415,0,.751.677.751,1.513h0C974.924,342.4,974.588,343.075,974.172,343.075Z" transform="translate(-943.345 -291.289)" fill="#e4e9f6"/><path d="M999.814,343.075h-7.361c-.416,0-.752-.677-.752-1.514h0c0-.836.336-1.513.752-1.513h7.361c.417,0,.754.677.754,1.513h0C1000.564,342.4,1000.226,343.075,999.814,343.075Z" transform="translate(-959.108 -291.289)" fill="#e4e9f6"/><path d="M943.322,353.641h-7.831c-.415,0-.752-.677-.752-1.512h0c0-.837.337-1.514.752-1.514h7.831c.416,0,.751.677.751,1.514h0C944.073,352.964,943.738,353.641,943.322,353.641Z" transform="translate(-934.739 -295.81)" fill="#fec35b"/><path d="M965.285,353.641h-9.674c-.417,0-.755-.677-.755-1.512h0c0-.837.339-1.514.755-1.514h9.674c.416,0,.754.677.754,1.514h0C966.039,352.964,965.7,353.641,965.285,353.641Z" transform="translate(-943.345 -295.81)" fill="#33c6f4"/><path d="M935.492,312.154c-.415,0-.752-.677-.752-1.512h0c0-.837.337-1.515.752-1.515h7.831c.416,0,.751.677.751,1.515h0c0,.835-.336,1.512-.751,1.512" transform="translate(-934.739 -278.061)" fill="#33c6f4"/><path d="M1031.066,312.154h-20.834a1,1,0,0,1-1-1v-1.033a1,1,0,0,1,1-1h20.834a1,1,0,0,1,1,1v1.033A1,1,0,0,1,1031.066,312.154Z" transform="translate(-966.609 -278.061)" fill="#e4e9f6"/><path d="M974.172,312.154H955.611c-.417,0-.755-.677-.755-1.512h0c0-.837.339-1.515.755-1.515h18.561c.415,0,.751.677.751,1.515h0C974.924,311.477,974.588,312.154,974.172,312.154Z" transform="translate(-943.345 -278.061)" fill="#fec35b"/><path d="M999.814,312.154h-7.361c-.416,0-.752-.677-.752-1.512h0c0-.837.336-1.515.752-1.515h7.361c.417,0,.754.677.754,1.515h0C1000.564,311.477,1000.226,312.154,999.814,312.154Z" transform="translate(-959.108 -278.061)" fill="#fec35b"/><path d="M1000.38,364.883H955.608c-.417,0-.755-.679-.755-1.513h0c0-.836.339-1.513.755-1.513h44.772c.417,0,.751.677.751,1.513h0C1001.135,364.2,1000.8,364.883,1000.38,364.883Z" transform="translate(-943.344 -300.619)" fill="#e4e9f6"/><path d="M969.892,375.812H955.611c-.417,0-.755-.678-.755-1.513h0c0-.838.339-1.515.755-1.515h14.281c.417,0,.753.678.753,1.515h0C970.645,375.136,970.308,375.812,969.892,375.812Z" transform="translate(-943.345 -305.294)" fill="#e4e9f6"/><path d="M1006.238,375.812H985.657c-.416,0-.754-.678-.754-1.513h0c0-.838.339-1.515.754-1.515h20.581c.417,0,.755.678.755,1.515h0C1006.994,375.136,1006.65,375.812,1006.238,375.812Z" transform="translate(-956.2 -305.294)" fill="#e4e9f6"/><path d="M1000.38,429.041H955.608c-.417,0-.755-.677-.755-1.513h0c0-.835.339-1.513.755-1.513h44.772c.417,0,.751.677.751,1.513h0C1001.135,428.364,1000.8,429.041,1000.38,429.041Z" transform="translate(-943.344 -328.067)" fill="#e4e9f6"/><path d="M943.322,439.974h-7.831c-.415,0-.752-.679-.752-1.514h0c0-.835.337-1.512.752-1.512h7.831c.416,0,.751.677.751,1.512h0C944.073,439.295,943.738,439.974,943.322,439.974Z" transform="translate(-934.739 -332.744)" fill="#ef58a0"/><path d="M969.892,439.974H955.611c-.417,0-.755-.679-.755-1.514h0c0-.835.339-1.512.755-1.512h14.281c.417,0,.753.677.753,1.512h0C970.645,439.295,970.308,439.974,969.892,439.974Z" transform="translate(-943.345 -332.744)" fill="#33c6f4"/><path d="M1006.238,439.974H985.657c-.416,0-.754-.679-.754-1.514h0c0-.835.339-1.512.754-1.512h20.581c.417,0,.755.677.755,1.512h0C1006.994,439.295,1006.65,439.974,1006.238,439.974Z" transform="translate(-956.2 -332.744)" fill="#e4e9f6"/><path d="M943.322,386.745h-7.831c-.415,0-.752-.677-.752-1.514h0c0-.836.337-1.513.752-1.513h7.831c.416,0,.751.677.751,1.513h0C944.073,386.068,943.738,386.745,943.322,386.745Z" transform="translate(-934.739 -309.972)" fill="#ef58a0"/><path d="M995.575,386.746H955.768a.912.912,0,0,1-.912-.91v-1.206a.913.913,0,0,1,.912-.91h39.809a.912.912,0,0,1,.911.91v1.206A.912.912,0,0,1,995.575,386.746Z" transform="translate(-943.345 -309.972)" fill="#ef58a0"/><path d="M943.322,397.679h-7.831c-.415,0-.752-.677-.752-1.514h0c0-.836.337-1.513.752-1.513h7.831c.416,0,.751.677.751,1.513h0C944.073,397,943.738,397.679,943.322,397.679Z" transform="translate(-934.739 -314.649)" fill="#e4e9f6"/><path d="M974.172,397.679H955.611c-.417,0-.755-.677-.755-1.514h0c0-.836.339-1.513.755-1.513h18.561c.415,0,.751.677.751,1.513h0C974.924,397,974.588,397.679,974.172,397.679Z" transform="translate(-943.345 -314.649)" fill="#e4e9f6"/><path d="M999.814,397.679h-7.361c-.416,0-.752-.677-.752-1.514h0c0-.836.336-1.513.752-1.513h7.361c.417,0,.754.677.754,1.513h0C1000.564,397,1000.226,397.679,999.814,397.679Z" transform="translate(-959.108 -314.649)" fill="#e4e9f6"/><path d="M943.322,408.245h-7.831c-.415,0-.752-.677-.752-1.512h0c0-.837.337-1.514.752-1.514h7.831c.416,0,.751.677.751,1.514h0C944.073,407.568,943.738,408.245,943.322,408.245Z" transform="translate(-934.739 -319.17)" fill="#e4e9f6"/><path d="M1006.256,408.245H955.875a1.021,1.021,0,0,1-1.022-1.018v-.986a1.023,1.023,0,0,1,1.022-1.021h50.382a1.023,1.023,0,0,1,1.022,1.021v.986A1.017,1.017,0,0,1,1006.256,408.245Z" transform="translate(-943.344 -319.17)" fill="#e4e9f6"/><path d="M943.322,450.1h-7.831c-.415,0-.752-.679-.752-1.514h0c0-.835.337-1.514.752-1.514h7.831c.416,0,.751.679.751,1.514h0C944.073,449.418,943.738,450.1,943.322,450.1Z" transform="translate(-934.739 -337.074)" fill="#e4e9f6"/><path d="M1034.684,450.1h-24.7c-.416,0-.756-.679-.756-1.514h0c0-.835.34-1.514.756-1.514h24.7c.416,0,.751.679.751,1.514h0C1035.439,449.418,1035.1,450.1,1034.684,450.1Z" transform="translate(-966.605 -337.074)" fill="#e4e9f6"/><path d="M974.172,450.1H955.611c-.417,0-.755-.679-.755-1.514h0c0-.835.339-1.514.755-1.514h18.561c.415,0,.751.679.751,1.514h0C974.924,449.418,974.588,450.1,974.172,450.1Z" transform="translate(-943.345 -337.074)" fill="#e4e9f6"/><path d="M999.814,450.1h-7.361c-.416,0-.752-.679-.752-1.514h0c0-.835.336-1.514.752-1.514h7.361c.417,0,.754.679.754,1.514h0C1000.564,449.418,1000.226,450.1,999.814,450.1Z" transform="translate(-959.108 -337.074)" fill="#e4e9f6"/><path d="M988.655,460.666H955.684a.832.832,0,0,1-.833-.83V458.47a.832.832,0,0,1,.833-.831h32.971a.83.83,0,0,1,.828.831v1.366A.828.828,0,0,1,988.655,460.666Z" transform="translate(-943.343 -341.596)" fill="#fec35b"/><path d="M1032.374,419.177h-22.121a1.025,1.025,0,0,1-1.025-1.024v-.977a1.025,1.025,0,0,1,1.025-1.025h22.121a1.025,1.025,0,0,1,1.025,1.025v.977A1.025,1.025,0,0,1,1032.374,419.177Z" transform="translate(-966.606 -323.847)" fill="#ef58a0"/><path d="M974.172,419.178H955.611c-.417,0-.755-.677-.755-1.512h0c0-.837.339-1.513.755-1.513h18.561c.415,0,.751.677.751,1.513h0C974.924,418.5,974.588,419.178,974.172,419.178Z" transform="translate(-943.345 -323.847)" fill="#fec35b"/><path d="M999.814,419.178h-7.361c-.416,0-.752-.677-.752-1.512h0c0-.837.336-1.513.752-1.513h7.361c.417,0,.754.677.754,1.513h0C1000.564,418.5,1000.226,419.178,999.814,419.178Z" transform="translate(-959.108 -323.847)" fill="#fec35b"/></g><g transform="translate(606.541 170.07)"><path d="M1098.857,211.526a24.732,24.732,0,1,1-24.73-24.731A24.731,24.731,0,0,1,1098.857,211.526Z" transform="translate(-1049.394 -186.795)" fill="#b188be"/><g transform="translate(8.895 18.754)"><path d="M1078.981,223.228l-9.823,3.6,9.823,3.569v3.687l-14.042-5.339v-3.835l14.042-5.337Z" transform="translate(-1064.939 -219.571)" fill="#f9fcfd"/><g transform="translate(17.252)"><path d="M1095.09,219.571l14.043,5.337v3.835l-14.043,5.339V230.4l9.824-3.569-9.824-3.6Z" transform="translate(-1095.09 -219.571)" fill="#f9fcfd"/></g></g></g><g transform="translate(440.863 584.97)"><path d="M813.494,938.733a26.827,26.827,0,1,1-26.827-26.827A26.826,26.826,0,0,1,813.494,938.733Z" transform="translate(-759.841 -911.906)" fill="#8371b3"/><g transform="translate(12.662 12.643)"><path d="M810.3,946.651a12.687,12.687,0,0,1-.8,4.574,7.582,7.582,0,0,1-2.255,3.251,5.215,5.215,0,0,1-3.385,1.18,4.228,4.228,0,0,1-2.273-.616,3.536,3.536,0,0,1-1.42-1.623h-.28a5.945,5.945,0,0,1-4.768,2.239,6.4,6.4,0,0,1-4.842-1.846,7.025,7.025,0,0,1-1.77-5.058,7.817,7.817,0,0,1,2.326-5.9,8.394,8.394,0,0,1,6.072-2.236,20.709,20.709,0,0,1,3.288.286,17.981,17.981,0,0,1,2.959.686l-.4,8.482q0,2.411,1.318,2.411,1.107,0,1.77-1.624a11.408,11.408,0,0,0,.659-4.242,10.206,10.206,0,0,0-1.164-4.935,7.9,7.9,0,0,0-3.268-3.268,10.07,10.07,0,0,0-4.815-1.126,12.32,12.32,0,0,0-6.09,1.438,9.619,9.619,0,0,0-3.963,4.156,13.629,13.629,0,0,0-1.381,6.272q0,4.785,2.559,7.343t7.417,2.563a22.3,22.3,0,0,0,4.043-.409,27.061,27.061,0,0,0,4.335-1.188v3.331a20.863,20.863,0,0,1-8.238,1.577q-6.6,0-10.279-3.468t-3.687-9.646a16.137,16.137,0,0,1,1.884-7.781,13.624,13.624,0,0,1,5.359-5.482A15.834,15.834,0,0,1,797.22,934a14.581,14.581,0,0,1,6.813,1.561,11.063,11.063,0,0,1,4.633,4.443A13.253,13.253,0,0,1,810.3,946.651Zm-17.762,2.171q0,3.657,2.985,3.659a2.771,2.771,0,0,0,2.375-1.1,6.965,6.965,0,0,0,.989-3.58l.226-3.833a9.542,9.542,0,0,0-2-.192,4.292,4.292,0,0,0-3.374,1.353A5.362,5.362,0,0,0,792.535,948.822Z" transform="translate(-781.97 -934.002)" fill="#fff"/></g></g><g transform="translate(139.835 147.701)"><path d="M426.785,147.7H258.49a24.749,24.749,0,1,0,0,49.5h12.375l11.963,11.963L294.791,197.2H426.785a24.749,24.749,0,1,0,0-49.5Z" transform="translate(-233.741 -147.701)" fill="#7fbd2e"/><path d="M402.09,200.605H291.348a2.767,2.767,0,0,1-2.768-2.768h0a2.767,2.767,0,0,1,2.768-2.768H402.09a2.769,2.769,0,0,1,2.768,2.768h0A2.769,2.769,0,0,1,402.09,200.605Z" transform="translate(-257.202 -167.966)" fill="#fff"/><path d="M367.482,173.993H291.348a2.766,2.766,0,0,1-2.768-2.768h0a2.767,2.767,0,0,1,2.768-2.768h76.134a2.767,2.767,0,0,1,2.768,2.768h0A2.767,2.767,0,0,1,367.482,173.993Z" transform="translate(-257.202 -156.581)" fill="#fff"/></g><g transform="translate(515.956 399.396)"><path d="M970.742,692.711s-2.06,6.11-3.2,9.8c0,0,10.094-.213,13.644-4.9l-3.763-9.025Z" transform="translate(-923.793 -630.795)" fill="#f6d3a9"/><g transform="translate(37.036 229.863)"><path d="M970.486,989.859l.862,3.843,5.571.313-1.178-4.706Z" transform="translate(-962.087 -989.309)" fill="#f79b75"/><path d="M965.069,996.986s-9.337,4.865-9.26,5.178,15.772-1.336,15.772-1.336l-.941-3.529Z" transform="translate(-955.808 -992.593)" fill="#5653a4"/></g><g transform="translate(87.923 220.263)"><path d="M1052.77,974.933l2.186,3.279,5.31-1.714-2.792-3.967Z" transform="translate(-1048.177 -972.531)" fill="#f79b75"/><path d="M1051.521,981.178s-6.962,7.9-6.775,8.163,14.235-6.921,14.235-6.921l-2.151-2.956Z" transform="translate(-1044.743 -975.497)" fill="#5653a4"/></g><path d="M948.667,812.334s-16.007,52.258,9.412,102.63h7.534S950.549,858,969.38,811.865Z" transform="translate(-913.589 -683.533)" fill="#fec240"/><path d="M976.669,810.382s2.483,54.595,43.352,93.5l7.093-2.532s-33.328-48.591-31.092-98.371Z" transform="translate(-927.696 -679.731)" fill="#fec240"/><g transform="translate(0 0)"><path d="M957.621,595.217l.021-3.222a1.584,1.584,0,0,0-.054-.419l-.612-2.306-1.837.469-1.874-1.729a1.589,1.589,0,0,0-2.518.482,17.617,17.617,0,0,0-1.443,4.01,1.574,1.574,0,0,0,.4,1.321l2.865,3.135a1.6,1.6,0,0,0,1.628.452l2.282-.676A1.586,1.586,0,0,0,957.621,595.217Z" transform="translate(-915.98 -587.583)" fill="#f79b75"/><path d="M986.553,671.884s-20.877-22.375-22.251-30.75-4.428-39.523-4.428-39.523l-6.44,1.243s-2.209,44.556-.256,49.688,14.508,31.282,22.684,33.695S989.786,680.587,986.553,671.884Z" transform="translate(-917.302 -593.584)" fill="#f05173"/><path d="M959.4,653.708s-4.708,15.665-1.727,19.614,13.966.375,18.229-5.946,5.117-20.54-2.134-21.726S961.109,647.388,959.4,653.708Z" transform="translate(-919.147 -612.314)" fill="#f79b75"/><path d="M982.073,770.381s4.235-45.194,4.235-57.436c0-.558-.01-1.084-.016-1.61-3.152-7.959-10.974-7.8-14.1-7.177s-15.38,4.551-15.3,5.021l-.033-.039c-4.216,3.061-7.441,6.692-7.737,7.572,0,0-11.3,23.54-1.411,51.786Z" transform="translate(-913.571 -637.342)" fill="#f05173"/><path d="M899.751,600.036l-.55-3.174a1.462,1.462,0,0,0-.127-.4l-1.008-2.162-1.724.785-2.149-1.374a1.591,1.591,0,0,0-2.4.918,17.727,17.727,0,0,0-.716,4.2,1.564,1.564,0,0,0,.63,1.228l3.367,2.582a1.6,1.6,0,0,0,1.683.164l2.13-1.068A1.593,1.593,0,0,0,899.751,600.036Z" transform="translate(-891.081 -590.094)" fill="#f79b75"/><path d="M941.981,669.845s-24.479-18.357-27.3-26.366-11.3-38.131-11.3-38.131L897.26,607.7s5.651,44.254,8.472,48.962,19.775,28.246,28.246,29.19S946.689,677.847,941.981,669.845Z" transform="translate(-893.724 -595.183)" fill="#f05173"/><path d="M975.033,644.7s-12.555-5.335-18.517,5.651c-3.137,6.9,6.9.312,8.789,2.508s-2.511,6.591-1.255,8.162,3.451-2.824,4.708-.315-1.884,2.823-4.083,5.65,1.882,6.9-1.254,9.415-11.926,4.394-6.592,17.89-8.788,16.948-2.825,35.464,46.451,28.878,53.985,6.905-17.575-27.306-16.009-37.036,7.221-12.238-.312-21.968-12.243-15.38-10.044-21.656S977.858,644.7,975.033,644.7Z" transform="translate(-917.359 -611.463)" fill="#5653a4"/></g></g><path d="M1031.531,513.045a26.988,26.988,0,1,0,26.99,26.989A26.989,26.989,0,0,0,1031.531,513.045Zm-13.646,24.89a3.3,3.3,0,1,1,3.3,3.3A3.3,3.3,0,0,1,1017.885,537.935Zm13.646,16.827a8.588,8.588,0,0,1-8.5-7.417h17A8.583,8.583,0,0,1,1031.531,554.762Zm10.345-13.529a3.3,3.3,0,1,1,3.3-3.3A3.3,3.3,0,0,1,1041.876,541.233Z" transform="translate(-423.665 -156.298)" fill="#fec90a"/><path d="M349.913,844.455l-1.58-3.162,42.781-21.388,53.972.882,58.6-22.073h44.761l47.79-15.932.389.045,38.327,4.353,21.6-11.232,1.63,3.134-22.556,11.73-.539-.061-38.474-4.37-47.882,15.864H504.013l-58.308,22.088-.335-.007-53.447-.874Z" transform="translate(-142.93 -268.772)" fill="#f9fcfd"/><g transform="translate(333.378 324.737)"><path d="M625.506,739.912s42.4,68.672,37.1,116.441l28.852.6-12.365-7.166,3.531-.6s-10.6-74.041-20.607-100.315c-10.485-27.518-13.542-17.317-13.542-17.317Z" transform="translate(-594.887 -573.725)" fill="#5653a4"/><path d="M587.3,738.336s2.356,47.7-1.177,65.949-14.132,54.172-14.132,54.172l27.086.589-7.114-5.023-4.516-2.632s19.286-51.817,21.049-76.548,4.713-38.862,4.713-38.862Z" transform="translate(-571.993 -576.41)" fill="#5653a4"/><g transform="translate(9.084)"><path d="M693.464,477.858l4.416-3.09,1.986-7.289-2.206-.441-1.324,2.649L697.66,457.1l-2.209.442-2.206,12.143-2.651,5.742,2.429,1.546" transform="translate(-631.816 -457.102)" fill="#f6d3a9"/><path d="M741.273,507.468l.589-5.3,6.478-6.478,1.47,2.062-2.355,2.65,12.368-2.944v2.65l-11.483,4.416-2.356,4.121Z" transform="translate(-653.497 -473.611)" fill="#f6d3a9"/><g transform="translate(0 16.301)"><path d="M646.453,485.591s-50.285,61.023-56.141,73.228c0,0-2.442,4.392-2.442,17.086s4.395,59.56,4.395,59.56l51.261,2.927s-16.6-57.115-17.087-58.581-8.787-10.253-16.6-12.2L652.8,489.984Z" transform="translate(-587.869 -485.591)" fill="#7cb4e2"/><g transform="translate(13.19 46.283)"><path d="M626.509,615.429s2.135,6.339,3.313,10.169c0,0-10.461-.221-14.144-5.086l3.906-9.357Z" transform="translate(-612.956 -585.592)" fill="#f6d3a9"/><path d="M632.431,576.51s3.094,18.024,0,22.118-13.7-2.866-18.126-9.421-5.3-21.3,2.213-22.527A13.9,13.9,0,0,1,632.431,576.51Z" transform="translate(-610.921 -566.479)" fill="#f6d3a9"/></g><path d="M638.668,586.649s40.317-25.358,43.567-30.558S694.592,512.2,694.592,512.2l7.8,1.952s-4.552,43.241-5.853,47.794-40.966,46.813-50.069,46.813S634.121,597.056,638.668,586.649Z" transform="translate(-608.729 -496.974)" fill="#7cb4e2"/></g></g><path d="M627.366,567.065s2.063-7.068-2.353-10.6-12.071-2.941-13.248-1.764c0,2.059,4.71,3.238,3.533,4.415s-7.36,0-8.834,6.182.589,7.361.589,7.361-3.237,3.827.589,9.127,12.479,9.668,14.631,9.1.974-8.809.974-8.809-5-.588-5.3-3.826,2.356-3.534,3.534-2.355,1.469,3.827,2.355,3.237-.3-6.772-.3-6.772S626.78,569.713,627.366,567.065Z" transform="translate(-586.445 -498.465)" fill="#5653a4"/></g><g transform="translate(356.213 573.158)"><path d="M653.72,891.82l-30.277,8.3a15.744,15.744,0,0,0-10.984,19.29l5.726,20.878a15.743,15.743,0,0,0,19.29,10.988l9.078-2.493,8.938,8.835,3.181-12.159,9.077-2.489a15.741,15.741,0,0,0,10.987-19.289l-5.726-20.88A15.741,15.741,0,0,0,653.72,891.82Z" transform="translate(-611.901 -891.262)" fill="#7fbd2e"/><g transform="translate(14.961 23.847)"><path d="M644.87,950.128A3.473,3.473,0,1,1,640.6,947.7,3.466,3.466,0,0,1,644.87,950.128Z" transform="translate(-638.047 -939.2)" fill="#fff"/><path d="M671.54,942.812a3.473,3.473,0,1,1-4.27-2.433A3.477,3.477,0,0,1,671.54,942.812Z" transform="translate(-649.457 -936.069)" fill="#fff"/><path d="M698.2,935.5a3.473,3.473,0,1,1-4.266-2.432A3.474,3.474,0,0,1,698.2,935.5Z" transform="translate(-660.864 -932.94)" fill="#fff"/></g></g><path d="M424.7,850.14a5.594,5.594,0,1,1-5.594-5.594A5.594,5.594,0,0,1,424.7,850.14Z" transform="translate(-170.817 -298.119)" fill="#fec240"/><path d="M783.85,787.368a5.6,5.6,0,1,1-5.595-5.594A5.595,5.595,0,0,1,783.85,787.368Z" transform="translate(-324.462 -271.264)" fill="#f05173"/></g></g></svg>